HIERARCHY
ROOT Hips
{
	OFFSET -0.001795 -0.223333 0.028219
	CHANNELS 6 Xposition Yposition Zposition Zrotation Yrotation Xrotation 
	JOINT LeftUpLeg
	{
		OFFSET 0.069520 -0.091406 -0.006815
		CHANNELS 3 Zrotation Yrotation Xrotation
		JOINT LeftLeg
		{
			OFFSET 0.034277 -0.375199 -0.004496
			CHANNELS 3 Zrotation Yrotation Xrotation
			JOINT LeftFoot
			{
				OFFSET -0.013596 -0.397961 -0.043693
				CHANNELS 3 Zrotation Yrotation Xrotation
				JOINT LeftToe
				{
					OFFSET 0.026358 -0.055791 0.119288
					CHANNELS 3 Zrotation Yrotation Xrotation
					End Site
					{
						OFFSET 0.000000 0.000000 0.000000
					}
				}
			}
		}
	}
	JOINT RightUpLeg
	{
		OFFSET -0.067670 -0.090522 -0.004320
		CHANNELS 3 Zrotation Yrotation Xrotation
		JOINT RightLeg
		{
			OFFSET -0.038290 -0.382569 -0.008850
			CHANNELS 3 Zrotation Yrotation Xrotation
			JOINT RightFoot
			{
				OFFSET 0.015774 -0.398415 -0.042312
				CHANNELS 3 Zrotation Yrotation Xrotation
				JOINT RightToe
				{
					OFFSET -0.025372 -0.048144 0.123348
					CHANNELS 3 Zrotation Yrotation Xrotation
					End Site
					{
						OFFSET 0.000000 0.000000 0.000000
					}
				}
			}
		}
	}
	JOINT Spine
	{
		OFFSET -0.002533 0.108963 -0.026696
		CHANNELS 3 Zrotation Yrotation Xrotation
		JOINT Spine1
		{
			OFFSET 0.005487 0.135180 0.001092
			CHANNELS 3 Zrotation Yrotation Xrotation
			JOINT Spine2
			{
				OFFSET 0.001457 0.052922 0.025425
				CHANNELS 3 Zrotation Yrotation Xrotation
				JOINT Neck
				{
					OFFSET -0.002778 0.213870 -0.042857
					CHANNELS 3 Zrotation Yrotation Xrotation
					JOINT Head
					{
						OFFSET 0.005152 0.064970 0.051349
						CHANNELS 3 Zrotation Yrotation Xrotation
						End Site
						{
							OFFSET 0.000000 0.000000 0.000000
						}
					}
				}
				JOINT LeftShoulder
				{
					OFFSET 0.078845 0.121749 -0.034090
					CHANNELS 3 Zrotation Yrotation Xrotation
					JOINT LeftArm
					{
						OFFSET 0.090977 0.030469 -0.008868
						CHANNELS 3 Zrotation Yrotation Xrotation
						JOINT LeftForeArm
						{
							OFFSET 0.259612 -0.012772 -0.027456
							CHANNELS 3 Zrotation Yrotation Xrotation
							JOINT LeftHand
							{
								OFFSET 0.249234 0.008986 -0.001171
								CHANNELS 3 Zrotation Yrotation Xrotation
								End Site
								{
									OFFSET 0.000000 0.000000 0.000000
								}
							}
						}
					}
				}
				JOINT RightShoulder
				{
					OFFSET -0.081759 0.118833 -0.038615
					CHANNELS 3 Zrotation Yrotation Xrotation
					JOINT RightArm
					{
						OFFSET -0.096012 0.032551 -0.009143
						CHANNELS 3 Zrotation Yrotation Xrotation
						JOINT RightForeArm
						{
							OFFSET -0.253742 -0.013329 -0.021401
							CHANNELS 3 Zrotation Yrotation Xrotation
							JOINT RightHand
							{
								OFFSET -0.255298 0.007772 -0.005559
								CHANNELS 3 Zrotation Yrotation Xrotation
								End Site
								{
									OFFSET 0.000000 0.000000 0.000000
								}
							}
						}
					}
				}
			}
		}
	}
}
MOTION
Frames: 17
Frame Time: 0.050000
0.377598 0.619533 -0.126117 2.105391 15.408180 0.437508 18.560011 -0.458694 -13.489621 -25.203682 14.182833 87.107150 12.253710 25.041970 -0.445558 0.000000 0.000000 0.000000 -3.007678 -1.496937 -70.049439 -7.389986 8.996569 91.877098 -2.629394 11.286561 -23.935195 0.000000 0.000000 0.000000 15.635069 -13.073414 47.014493 2.932443 -1.082857 -3.550558 -4.701906 9.783798 5.757099 11.628216 -1.788147 -27.993910 0.000000 0.000000 0.000000 -19.078947 -27.854161 8.845077 -27.123987 -23.083140 2.370357 54.570530 -44.008655 -24.465239 0.000000 0.000000 0.000000 20.892526 8.732902 7.596878 25.929541 16.449323 -0.855380 -64.019738 41.607861 -19.774182 0.000000 0.000000 0.000000 
0.395278 0.582933 -0.138161 0.923394 13.083356 -0.893676 19.189662 -0.118201 -15.915762 -24.299270 17.336485 95.240355 11.298087 22.959581 2.297720 0.000000 0.000000 0.000000 -2.735653 -0.371608 -73.922057 -6.884796 10.780005 96.678612 -2.888664 12.523288 -25.212948 0.000000 0.000000 0.000000 15.099769 -13.352816 50.609991 3.095716 -1.252521 -2.695979 -5.167895 8.025893 5.200487 10.092108 -1.187672 -29.031757 0.000000 0.000000 0.000000 -15.148586 -29.120719 10.061792 -28.867610 -27.651401 3.208745 51.290037 -38.301264 -19.562528 0.000000 0.000000 0.000000 19.264905 11.994653 8.420786 25.722711 17.683126 -0.377536 -61.723221 39.826809 -18.391592 0.000000 0.000000 0.000000 
0.412979 0.557220 -0.147666 -0.212672 11.221946 -2.009148 18.810966 0.039954 -15.764021 -23.263596 18.972685 99.770310 11.457835 22.734919 7.261912 0.000000 0.000000 0.000000 -2.557813 0.681662 -76.289310 -6.870346 12.391340 99.444225 -2.939373 13.727972 -25.901627 0.000000 0.000000 0.000000 14.317630 -13.427329 53.977263 3.785622 -1.542636 -3.178389 -5.477515 6.579261 4.534441 9.307607 -1.185158 -28.299857 0.000000 0.000000 0.000000 -15.642304 -31.726960 11.977821 -27.906185 -28.655316 3.244795 49.288693 -35.908589 -17.040732 0.000000 0.000000 0.000000 20.060099 14.459843 9.348632 24.831888 18.465124 -0.100961 -58.444915 41.750062 -18.921333 0.000000 0.000000 0.000000 
0.428313 0.540288 -0.155074 -1.535469 9.226653 -2.887421 18.831615 0.223640 -15.636574 -21.791635 20.021057 103.799337 10.538805 20.992437 10.748532 0.000000 0.000000 0.000000 -2.625054 1.713652 -78.458959 -6.007901 12.541015 101.473888 -2.118632 14.726160 -23.693631 0.000000 0.000000 0.000000 13.694954 -13.155973 56.415601 4.141826 -1.800732 -2.295208 -5.863795 5.062496 2.991029 7.562999 -0.650939 -27.751749 0.000000 0.000000 0.000000 -13.835379 -31.200204 11.921243 -30.127300 -31.432151 4.165496 47.568190 -35.554473 -15.948882 0.000000 0.000000 0.000000 20.975241 15.539785 9.461608 25.677245 18.224330 0.137727 -57.673493 46.161973 -21.603164 0.000000 0.000000 0.000000 
0.440617 0.531984 -0.161512 -2.598282 8.403393 -3.464756 18.511401 0.246663 -15.003558 -20.386974 19.082130 105.588195 9.725897 19.727187 10.658021 0.000000 0.000000 0.000000 -3.813153 1.188286 -79.587432 -4.409271 10.718300 102.317533 -1.351269 15.322309 -21.571197 0.000000 0.000000 0.000000 13.280693 -12.716060 56.640941 4.307003 -1.869338 -2.461524 -5.921717 2.938491 2.950647 6.248942 -0.365554 -27.235648 0.000000 0.000000 0.000000 -14.014880 -31.433027 12.612403 -31.148773 -31.327985 4.226710 48.661082 -37.890119 -17.031004 0.000000 0.000000 0.000000 22.118767 15.491797 8.890003 28.565736 16.405617 0.112931 -58.120275 53.815018 -26.792087 0.000000 0.000000 0.000000 
0.449915 0.524499 -0.168449 -3.845952 6.553863 -3.536176 19.248329 0.469870 -15.283105 -20.074401 20.660781 106.558478 9.716605 19.728048 11.622310 0.000000 0.000000 0.000000 -4.107810 2.045543 -81.934272 -2.025662 8.083117 104.135806 -0.921648 11.530187 -17.655997 0.000000 0.000000 0.000000 11.870622 -11.314016 56.628427 4.171958 -1.825812 -2.362218 -5.194485 2.205393 2.951510 5.004367 -0.046457 -26.156682 0.000000 0.000000 0.000000 -13.758616 -30.247030 12.251057 -32.811989 -32.151591 4.680711 48.411134 -41.292084 -18.303551 0.000000 0.000000 0.000000 23.973825 14.726124 8.248286 30.751637 14.157732 -0.197869 -59.286932 60.738989 -32.191187 0.000000 0.000000 0.000000 
0.456823 0.523782 -0.176023 -4.747698 6.548801 -3.533179 18.625002 0.406271 -15.292428 -20.161309 20.491750 106.107147 10.932940 21.521173 13.101350 0.000000 0.000000 0.000000 -3.834799 2.232526 -82.609612 -1.023694 6.561699 104.549014 -1.629340 6.193059 -15.749614 0.000000 0.000000 0.000000 11.675737 -10.916773 55.343279 4.037006 -1.761638 -2.363819 -4.839688 -0.045475 3.295153 3.409729 0.322043 -24.779056 0.000000 0.000000 0.000000 -15.256166 -29.549840 12.738914 -33.689184 -31.784137 4.635954 49.493143 -44.041936 -19.599299 0.000000 0.000000 0.000000 25.191026 14.757088 7.629049 34.769235 11.801727 -0.505074 -64.185364 66.516811 -40.189774 0.000000 0.000000 0.000000 
0.462133 0.525678 -0.184236 -5.238903 5.674250 -3.984651 18.478956 0.480319 -15.390891 -20.999066 22.166458 105.262442 12.076302 23.127228 14.448187 0.000000 0.000000 0.000000 -2.806987 3.640671 -82.888084 -0.359201 5.618396 104.248055 -2.734764 -0.926802 -12.423879 0.000000 0.000000 0.000000 10.881877 -9.885495 53.985149 3.689865 -1.694033 -1.260687 -4.688623 -1.095822 3.269137 2.964022 0.443237 -25.199495 0.000000 0.000000 0.000000 -15.364058 -28.036401 12.242031 -35.297605 -32.353193 5.055134 48.871514 -47.336926 -20.654465 0.000000 0.000000 0.000000 25.804891 14.082045 6.782671 37.978163 9.570258 -0.973905 -71.897989 71.367077 -50.578836 0.000000 0.000000 0.000000 
0.466169 0.533882 -0.192454 -5.565044 5.919950 -3.935959 18.109229 0.469961 -16.374022 -21.910960 22.824678 104.067463 12.632029 23.762194 16.084715 0.000000 0.000000 0.000000 -2.245499 3.933828 -82.724645 0.164441 4.566758 103.305394 -3.891677 -6.455553 -9.561475 0.000000 0.000000 0.000000 10.432381 -9.306730 52.125375 3.563305 -1.636255 -1.207432 -4.610619 -1.442233 3.168914 3.224450 0.261664 -24.883213 0.000000 0.000000 0.000000 -16.393281 -26.549242 11.686116 -36.586323 -31.466895 5.036232 49.190972 -51.509806 -22.822863 0.000000 0.000000 0.000000 25.087227 12.321154 5.557748 41.674192 7.361938 -1.686083 -77.904081 74.899642 -58.918488 0.000000 0.000000 0.000000 
0.468705 0.543466 -0.201069 -6.168902 6.399141 -4.421124 18.276096 0.532927 -18.014208 -22.745300 23.496160 103.808173 14.202358 25.773262 17.027537 0.000000 0.000000 0.000000 -1.520191 4.118921 -81.258778 0.090864 4.157539 101.487025 -4.683824 -9.457565 -8.126042 0.000000 0.000000 0.000000 10.225097 -8.943385 50.343180 3.071938 -1.361724 -1.715314 -4.270357 -1.427640 3.959038 4.348050 -0.226460 -25.572190 0.000000 0.000000 0.000000 -17.937252 -24.915562 11.003999 -36.613520 -31.217171 4.920803 47.740093 -55.116830 -23.825285 0.000000 0.000000 0.000000 24.926427 10.155876 4.303590 42.945119 5.566054 -2.417625 -93.292588 77.443561 -75.611350 0.000000 0.000000 0.000000 
0.469357 0.552195 -0.209914 -6.314252 7.722713 -4.848636 18.350260 0.503983 -19.712004 -23.752713 23.530031 103.107202 15.346845 27.260782 17.026467 0.000000 0.000000 0.000000 -0.570497 4.011859 -79.931845 -1.178610 5.318060 99.782657 -5.125165 -11.169195 -6.609577 0.000000 0.000000 0.000000 9.591138 -8.622639 48.819425 3.144461 -1.427760 -1.237543 -3.800454 -0.879340 3.450094 4.978242 -0.419715 -25.557695 0.000000 0.000000 0.000000 -18.594652 -24.111374 10.350706 -37.127553 -30.552594 4.924046 48.171618 -58.702499 -26.202183 0.000000 0.000000 0.000000 23.686039 8.094783 3.314589 43.704091 4.903099 -2.719809 -107.287710 77.738866 -89.450531 0.000000 0.000000 0.000000 
0.468201 0.558404 -0.219612 -6.722545 9.233321 -5.535187 18.739770 0.485033 -21.511343 -24.040750 22.860569 103.657059 17.138787 29.328316 18.361741 0.000000 0.000000 0.000000 -0.009998 3.469794 -78.536626 -1.540159 4.988785 98.129377 -6.099933 -14.069116 -5.598651 0.000000 0.000000 0.000000 9.080975 -8.601498 48.137807 2.864458 -1.202354 -2.288644 -3.512599 -0.134866 3.883309 6.176547 -0.813646 -26.092123 0.000000 0.000000 0.000000 -18.661095 -23.140132 9.443078 -37.782636 -30.097447 4.952735 47.703386 -62.642953 -28.356981 0.000000 0.000000 0.000000 23.482355 6.045215 2.504613 44.501905 4.545251 -3.046792 -125.467916 76.972767 -107.243422 0.000000 0.000000 0.000000 
0.465972 0.559712 -0.229692 -6.951073 11.304411 -6.586063 18.553150 0.319107 -23.410669 -24.374828 21.987931 104.694802 18.597043 31.385836 17.330109 0.000000 0.000000 0.000000 0.760021 2.815678 -77.325363 -2.821456 5.859214 97.541677 -6.663599 -15.571422 -5.330236 0.000000 0.000000 0.000000 8.702927 -8.752979 47.482390 3.001844 -1.277405 -1.998692 -3.208736 0.064839 3.086069 6.955132 -1.073542 -26.139300 0.000000 0.000000 0.000000 -20.724576 -22.768774 9.094886 -36.705624 -29.025513 4.644185 48.602461 -65.807703 -31.085802 0.000000 0.000000 0.000000 23.145807 4.721785 1.944312 45.030633 5.221199 -2.843044 -137.473799 75.165369 -118.707088 0.000000 0.000000 0.000000 
0.463625 0.557869 -0.238981 -7.310379 13.182111 -8.193572 17.683615 0.042400 -23.881358 -26.160520 22.696671 104.360211 22.662624 36.054971 19.018977 0.000000 0.000000 0.000000 1.034275 1.883758 -76.202653 -3.074687 5.263444 96.905381 -8.005399 -19.119431 -3.590489 0.000000 0.000000 0.000000 8.343293 -8.989919 47.392447 3.163579 -1.401077 -1.364242 -3.009099 0.601151 1.269437 7.518068 -1.400384 -24.670016 0.000000 0.000000 0.000000 -21.802151 -22.964399 8.801419 -35.587704 -27.115782 4.216298 53.892635 -68.740024 -37.330539 0.000000 0.000000 0.000000 23.696151 4.621511 2.151731 44.777474 6.310186 -2.420542 -140.890067 72.639034 -120.071594 0.000000 0.000000 0.000000 
0.461752 0.553442 -0.246248 -7.545048 14.071625 -9.443553 18.438874 0.076458 -23.493409 -26.753452 22.911123 104.798370 23.446456 37.148034 18.702774 0.000000 0.000000 0.000000 1.516942 1.734481 -75.538764 -3.099416 4.864445 97.553896 -9.026940 -21.655323 -3.954956 0.000000 0.000000 0.000000 8.571542 -8.964852 46.246725 2.294585 -1.005406 -0.969030 -3.074537 0.780678 -0.007651 7.119092 -1.428668 -22.507662 0.000000 0.000000 0.000000 -23.512002 -22.371012 8.256149 -32.892058 -25.264190 3.573375 62.586202 -72.246388 -47.040098 0.000000 0.000000 0.000000 24.766741 3.608112 1.661401 43.029127 8.003887 -1.767846 -144.360180 70.187898 -122.119009 0.000000 0.000000 0.000000 
0.461077 0.552865 -0.250787 -8.003549 15.038829 -10.826442 18.483867 0.000413 -22.609417 -27.938409 23.235660 104.137637 25.853422 39.989818 19.161139 0.000000 0.000000 0.000000 2.108671 1.601194 -74.432084 -3.971099 5.273306 96.464368 -9.964777 -23.701943 -1.460648 0.000000 0.000000 0.000000 8.734137 -8.735399 44.406822 2.725124 -1.215025 -0.877029 -4.182609 1.061842 -0.646505 7.481612 -1.862958 -20.203031 0.000000 0.000000 0.000000 -23.512680 -21.610957 7.309591 -31.176228 -23.221666 3.063103 79.363233 -72.557531 -62.363580 0.000000 0.000000 0.000000 25.348710 4.133389 2.344921 41.616200 10.365228 -1.081194 -142.441386 65.797206 -114.792043 0.000000 0.000000 0.000000 
0.461720 0.559150 -0.253362 -7.803570 15.255424 -12.068450 18.811834 0.043499 -21.083886 -29.170281 23.590807 102.107658 26.736333 40.245216 21.422216 0.000000 0.000000 0.000000 2.333143 1.707824 -72.959134 -4.555662 5.542828 95.755614 -10.456930 -24.551033 0.921638 0.000000 0.000000 0.000000 8.632662 -8.164882 42.548715 2.205168 -1.107709 0.698872 -4.656043 1.579669 -2.830694 7.434418 -2.334754 -16.632417 0.000000 0.000000 0.000000 -23.186139 -20.657344 6.307235 -28.903716 -20.969012 2.568087 96.760175 -72.144195 -78.788167 0.000000 0.000000 0.000000 25.414635 4.209936 2.552028 38.803863 12.677687 -0.311069 -142.024787 60.659674 -108.626202 0.000000 0.000000 0.000000 
